<svg xmlns="http://www.w3.org/2000/svg" xmlns:xlink="http://www.w3.org/1999/xlink" width="320" zoomAndPan="magnify" viewBox="0 0 240 89.999999" height="120" preserveAspectRatio="xMidYMid meet" version="1.0"><defs><g/><clipPath id="33264cc880"><path d="M 16 11 L 75 11 L 75 79 L 16 79 Z M 16 11 " clip-rule="nonzero"/></clipPath><clipPath id="fd3a64f90c"><path d="M 22.640625 28.492188 C 22.640625 22.632812 27.390625 17.882812 33.25 17.882812 L 57.5 17.882812 C 63.359375 17.882812 68.109375 22.632812 68.109375 28.492188 L 68.109375 52.742188 C 68.109375 57.785156 64.585938 62.015625 59.859375 63.089844 C 58.480469 63.402344 57.5 64.628906 57.5 66.042969 L 57.5 69.414062 L 50.226562 63.957031 C 49.699219 63.5625 49.0625 63.351562 48.40625 63.351562 L 33.25 63.351562 C 27.390625 63.351562 22.640625 58.601562 22.640625 52.742188 Z M 33.25 11.820312 C 24.042969 11.820312 16.578125 19.285156 16.578125 28.492188 L 16.578125 52.742188 C 16.578125 61.949219 24.042969 69.414062 33.25 69.414062 L 47.394531 69.414062 L 58.710938 77.902344 C 59.632812 78.589844 60.859375 78.699219 61.886719 78.1875 C 62.914062 77.675781 63.5625 76.625 63.5625 75.476562 L 63.5625 68.277344 C 69.773438 65.851562 74.171875 59.8125 74.171875 52.742188 L 74.171875 28.492188 C 74.171875 19.285156 66.707031 11.820312 57.5 11.820312 Z M 36.28125 19.398438 C 32.097656 19.398438 28.703125 22.789062 28.703125 26.976562 C 28.703125 31.160156 32.097656 34.554688 36.28125 34.554688 C 32.097656 34.554688 28.703125 37.945312 28.703125 42.132812 L 28.703125 54.257812 C 28.703125 58.441406 32.097656 61.835938 36.28125 61.835938 C 40.464844 61.835938 43.859375 58.441406 43.859375 54.257812 L 43.859375 42.132812 C 43.859375 37.945312 40.464844 34.554688 36.28125 34.554688 C 40.464844 34.554688 43.859375 31.160156 43.859375 26.976562 C 43.859375 22.789062 40.464844 19.398438 36.28125 19.398438 Z M 34.765625 26.976562 C 34.765625 26.140625 35.445312 25.460938 36.28125 25.460938 C 37.117188 25.460938 37.796875 26.140625 37.796875 26.976562 C 37.796875 27.8125 37.117188 28.492188 36.28125 28.492188 C 35.445312 28.492188 34.765625 27.8125 34.765625 26.976562 Z M 36.28125 40.617188 C 35.445312 40.617188 34.765625 41.296875 34.765625 42.132812 L 34.765625 54.257812 C 34.765625 55.09375 35.445312 55.773438 36.28125 55.773438 C 37.117188 55.773438 37.796875 55.09375 37.796875 54.257812 L 37.796875 42.132812 C 37.796875 41.296875 37.117188 40.617188 36.28125 40.617188 Z M 46.890625 42.132812 C 46.890625 37.945312 50.285156 34.554688 54.46875 34.554688 C 58.652344 34.554688 62.046875 37.945312 62.046875 42.132812 L 62.046875 54.257812 C 62.046875 58.441406 58.652344 61.835938 54.46875 61.835938 C 50.285156 61.835938 46.890625 58.441406 46.890625 54.257812 Z M 54.46875 40.617188 C 53.632812 40.617188 52.953125 41.296875 52.953125 42.132812 L 52.953125 54.257812 C 52.953125 55.09375 53.632812 55.773438 54.46875 55.773438 C 55.304688 55.773438 55.984375 55.09375 55.984375 54.257812 L 55.984375 42.132812 C 55.984375 41.296875 55.304688 40.617188 54.46875 40.617188 Z M 46.890625 26.976562 C 46.890625 22.789062 50.285156 19.398438 54.46875 19.398438 C 58.652344 19.398438 62.046875 22.789062 62.046875 26.976562 C 62.046875 31.160156 58.652344 34.554688 54.46875 34.554688 C 50.285156 34.554688 46.890625 31.160156 46.890625 26.976562 Z M 54.46875 25.460938 C 53.632812 25.460938 52.953125 26.140625 52.953125 26.976562 C 52.953125 27.8125 53.632812 28.492188 54.46875 28.492188 C 55.304688 28.492188 55.984375 27.8125 55.984375 26.976562 C 55.984375 26.140625 55.304688 25.460938 54.46875 25.460938 Z M 54.46875 25.460938 " clip-rule="evenodd"/></clipPath><linearGradient x1="12" gradientTransform="matrix(3.03125, 0, 0, 3.03125, 9.000001, 8.788759)" y1="0.999999" x2="12" gradientUnits="userSpaceOnUse" y2="23.0638" id="77c7f9cc74"><stop stop-opacity="1" stop-color="rgb(97.299194%, 34.098816%, 65.098572%)" offset="0"/><stop stop-opacity="1" stop-color="rgb(97.309875%, 34.100342%, 64.981079%)" offset="0.0078125"/><stop stop-opacity="1" stop-color="rgb(97.331238%, 34.103394%, 64.74762%)" offset="0.015625"/><stop stop-opacity="1" stop-color="rgb(97.3526%, 34.106445%, 64.51416%)" offset="0.0234375"/><stop stop-opacity="1" stop-color="rgb(97.372437%, 34.109497%, 64.280701%)" offset="0.03125"/><stop stop-opacity="1" stop-color="rgb(97.393799%, 34.112549%, 64.047241%)" offset="0.0390625"/><stop stop-opacity="1" stop-color="rgb(97.415161%, 34.117126%, 63.813782%)" offset="0.046875"/><stop stop-opacity="1" stop-color="rgb(97.436523%, 34.120178%, 63.580322%)" offset="0.0546875"/><stop stop-opacity="1" stop-color="rgb(97.457886%, 34.12323%, 63.346863%)" offset="0.0625"/><stop stop-opacity="1" stop-color="rgb(97.479248%, 34.126282%, 63.113403%)" offset="0.0703125"/><stop stop-opacity="1" stop-color="rgb(97.50061%, 34.129333%, 62.879944%)" offset="0.078125"/><stop stop-opacity="1" stop-color="rgb(97.521973%, 34.132385%, 62.646484%)" offset="0.0859375"/><stop stop-opacity="1" stop-color="rgb(97.541809%, 34.135437%, 62.413025%)" offset="0.09375"/><stop stop-opacity="1" stop-color="rgb(97.563171%, 34.138489%, 62.179565%)" offset="0.101562"/><stop stop-opacity="1" stop-color="rgb(97.584534%, 34.141541%, 61.946106%)" offset="0.109375"/><stop stop-opacity="1" stop-color="rgb(97.605896%, 34.144592%, 61.712646%)" offset="0.117188"/><stop stop-opacity="1" stop-color="rgb(97.627258%, 34.147644%, 61.479187%)" offset="0.125"/><stop stop-opacity="1" stop-color="rgb(97.648621%, 34.150696%, 61.245728%)" offset="0.132812"/><stop stop-opacity="1" stop-color="rgb(97.669983%, 34.153748%, 61.012268%)" offset="0.140625"/><stop stop-opacity="1" stop-color="rgb(97.689819%, 34.156799%, 60.778809%)" offset="0.148437"/><stop stop-opacity="1" stop-color="rgb(97.711182%, 34.159851%, 60.545349%)" offset="0.15625"/><stop stop-opacity="1" stop-color="rgb(97.732544%, 34.162903%, 60.31189%)" offset="0.164062"/><stop stop-opacity="1" stop-color="rgb(97.753906%, 34.165955%, 60.07843%)" offset="0.171875"/><stop stop-opacity="1" stop-color="rgb(97.775269%, 34.169006%, 59.844971%)" offset="0.179687"/><stop stop-opacity="1" stop-color="rgb(97.796631%, 34.173584%, 59.611511%)" offset="0.1875"/><stop stop-opacity="1" stop-color="rgb(97.817993%, 34.176636%, 59.378052%)" offset="0.195312"/><stop stop-opacity="1" stop-color="rgb(97.83783%, 34.179688%, 59.144592%)" offset="0.203125"/><stop stop-opacity="1" stop-color="rgb(97.859192%, 34.182739%, 58.911133%)" offset="0.210937"/><stop stop-opacity="1" stop-color="rgb(97.880554%, 34.185791%, 58.677673%)" offset="0.21875"/><stop stop-opacity="1" stop-color="rgb(97.901917%, 34.188843%, 58.444214%)" offset="0.226562"/><stop stop-opacity="1" stop-color="rgb(97.923279%, 34.191895%, 58.210754%)" offset="0.234375"/><stop stop-opacity="1" stop-color="rgb(97.944641%, 34.194946%, 57.977295%)" offset="0.242187"/><stop stop-opacity="1" stop-color="rgb(97.966003%, 34.197998%, 57.743835%)" offset="0.25"/><stop stop-opacity="1" stop-color="rgb(97.987366%, 34.20105%, 57.510376%)" offset="0.257812"/><stop stop-opacity="1" stop-color="rgb(98.007202%, 34.204102%, 57.276917%)" offset="0.265625"/><stop stop-opacity="1" stop-color="rgb(98.028564%, 34.207153%, 57.043457%)" offset="0.273438"/><stop stop-opacity="1" stop-color="rgb(98.049927%, 34.210205%, 56.809998%)" offset="0.28125"/><stop stop-opacity="1" stop-color="rgb(98.071289%, 34.213257%, 56.576538%)" offset="0.289062"/><stop stop-opacity="1" stop-color="rgb(98.092651%, 34.216309%, 56.343079%)" offset="0.296875"/><stop stop-opacity="1" stop-color="rgb(98.114014%, 34.21936%, 56.109619%)" offset="0.304687"/><stop stop-opacity="1" stop-color="rgb(98.135376%, 34.222412%, 55.87616%)" offset="0.3125"/><stop stop-opacity="1" stop-color="rgb(98.155212%, 34.225464%, 55.6427%)" offset="0.320313"/><stop stop-opacity="1" stop-color="rgb(98.176575%, 34.228516%, 55.409241%)" offset="0.328125"/><stop stop-opacity="1" stop-color="rgb(98.197937%, 34.233093%, 55.175781%)" offset="0.335938"/><stop stop-opacity="1" stop-color="rgb(98.219299%, 34.236145%, 54.942322%)" offset="0.34375"/><stop stop-opacity="1" stop-color="rgb(98.240662%, 34.239197%, 54.708862%)" offset="0.351562"/><stop stop-opacity="1" stop-color="rgb(98.262024%, 34.242249%, 54.475403%)" offset="0.359375"/><stop stop-opacity="1" stop-color="rgb(98.283386%, 34.2453%, 54.241943%)" offset="0.367188"/><stop stop-opacity="1" stop-color="rgb(98.304749%, 34.248352%, 54.008484%)" offset="0.375"/><stop stop-opacity="1" stop-color="rgb(98.324585%, 34.251404%, 53.775024%)" offset="0.382812"/><stop stop-opacity="1" stop-color="rgb(98.345947%, 34.254456%, 53.541565%)" offset="0.390625"/><stop stop-opacity="1" stop-color="rgb(98.36731%, 34.257507%, 53.308105%)" offset="0.398438"/><stop stop-opacity="1" stop-color="rgb(98.388672%, 34.260559%, 53.07312%)" offset="0.40625"/><stop stop-opacity="1" stop-color="rgb(98.410034%, 34.263611%, 52.839661%)" offset="0.414062"/><stop stop-opacity="1" stop-color="rgb(98.431396%, 34.266663%, 52.606201%)" offset="0.421875"/><stop stop-opacity="1" stop-color="rgb(98.452759%, 34.269714%, 52.372742%)" offset="0.429687"/><stop stop-opacity="1" stop-color="rgb(98.472595%, 34.272766%, 52.139282%)" offset="0.4375"/><stop stop-opacity="1" stop-color="rgb(98.493958%, 34.275818%, 51.905823%)" offset="0.445313"/><stop stop-opacity="1" stop-color="rgb(98.51532%, 34.27887%, 51.672363%)" offset="0.453125"/><stop stop-opacity="1" stop-color="rgb(98.536682%, 34.281921%, 51.438904%)" offset="0.460938"/><stop stop-opacity="1" stop-color="rgb(98.558044%, 34.284973%, 51.205444%)" offset="0.46875"/><stop stop-opacity="1" stop-color="rgb(98.579407%, 34.289551%, 50.971985%)" offset="0.476562"/><stop stop-opacity="1" stop-color="rgb(98.600769%, 34.292603%, 50.738525%)" offset="0.484375"/><stop stop-opacity="1" stop-color="rgb(98.620605%, 34.295654%, 50.505066%)" offset="0.492188"/><stop stop-opacity="1" stop-color="rgb(98.641968%, 34.298706%, 50.271606%)" offset="0.5"/><stop stop-opacity="1" stop-color="rgb(98.66333%, 34.301758%, 50.038147%)" offset="0.507812"/><stop stop-opacity="1" stop-color="rgb(98.684692%, 34.30481%, 49.804688%)" offset="0.515625"/><stop stop-opacity="1" stop-color="rgb(98.706055%, 34.307861%, 49.571228%)" offset="0.523438"/><stop stop-opacity="1" stop-color="rgb(98.727417%, 34.310913%, 49.337769%)" offset="0.53125"/><stop stop-opacity="1" stop-color="rgb(98.748779%, 34.313965%, 49.104309%)" offset="0.539062"/><stop stop-opacity="1" stop-color="rgb(98.770142%, 34.317017%, 48.87085%)" offset="0.546875"/><stop stop-opacity="1" stop-color="rgb(98.789978%, 34.320068%, 48.63739%)" offset="0.554688"/><stop stop-opacity="1" stop-color="rgb(98.81134%, 34.32312%, 48.403931%)" offset="0.5625"/><stop stop-opacity="1" stop-color="rgb(98.832703%, 34.326172%, 48.170471%)" offset="0.570312"/><stop stop-opacity="1" stop-color="rgb(98.854065%, 34.329224%, 47.937012%)" offset="0.578125"/><stop stop-opacity="1" stop-color="rgb(98.875427%, 34.332275%, 47.703552%)" offset="0.585937"/><stop stop-opacity="1" stop-color="rgb(98.89679%, 34.335327%, 47.470093%)" offset="0.59375"/><stop stop-opacity="1" stop-color="rgb(98.918152%, 34.338379%, 47.236633%)" offset="0.601562"/><stop stop-opacity="1" stop-color="rgb(98.937988%, 34.341431%, 47.003174%)" offset="0.609375"/><stop stop-opacity="1" stop-color="rgb(98.959351%, 34.344482%, 46.769714%)" offset="0.617188"/><stop stop-opacity="1" stop-color="rgb(98.980713%, 34.34906%, 46.536255%)" offset="0.625"/><stop stop-opacity="1" stop-color="rgb(99.002075%, 34.352112%, 46.302795%)" offset="0.632812"/><stop stop-opacity="1" stop-color="rgb(99.023438%, 34.355164%, 46.069336%)" offset="0.640625"/><stop stop-opacity="1" stop-color="rgb(99.0448%, 34.358215%, 45.835876%)" offset="0.648438"/><stop stop-opacity="1" stop-color="rgb(99.066162%, 34.361267%, 45.602417%)" offset="0.65625"/><stop stop-opacity="1" stop-color="rgb(99.085999%, 34.364319%, 45.368958%)" offset="0.664063"/><stop stop-opacity="1" stop-color="rgb(99.107361%, 34.367371%, 45.135498%)" offset="0.671875"/><stop stop-opacity="1" stop-color="rgb(99.128723%, 34.370422%, 44.902039%)" offset="0.679688"/><stop stop-opacity="1" stop-color="rgb(99.150085%, 34.373474%, 44.668579%)" offset="0.6875"/><stop stop-opacity="1" stop-color="rgb(99.171448%, 34.376526%, 44.43512%)" offset="0.695312"/><stop stop-opacity="1" stop-color="rgb(99.19281%, 34.379578%, 44.20166%)" offset="0.703125"/><stop stop-opacity="1" stop-color="rgb(99.214172%, 34.382629%, 43.968201%)" offset="0.710938"/><stop stop-opacity="1" stop-color="rgb(99.235535%, 34.385681%, 43.734741%)" offset="0.71875"/><stop stop-opacity="1" stop-color="rgb(99.255371%, 34.388733%, 43.501282%)" offset="0.726562"/><stop stop-opacity="1" stop-color="rgb(99.276733%, 34.391785%, 43.267822%)" offset="0.734375"/><stop stop-opacity="1" stop-color="rgb(99.298096%, 34.394836%, 43.034363%)" offset="0.742188"/><stop stop-opacity="1" stop-color="rgb(99.319458%, 34.397888%, 42.800903%)" offset="0.75"/><stop stop-opacity="1" stop-color="rgb(99.34082%, 34.40094%, 42.567444%)" offset="0.757812"/><stop stop-opacity="1" stop-color="rgb(99.362183%, 34.405518%, 42.333984%)" offset="0.765625"/><stop stop-opacity="1" stop-color="rgb(99.383545%, 34.408569%, 42.100525%)" offset="0.773438"/><stop stop-opacity="1" stop-color="rgb(99.403381%, 34.411621%, 41.867065%)" offset="0.78125"/><stop stop-opacity="1" stop-color="rgb(99.424744%, 34.414673%, 41.633606%)" offset="0.789062"/><stop stop-opacity="1" stop-color="rgb(99.446106%, 34.417725%, 41.400146%)" offset="0.796875"/><stop stop-opacity="1" stop-color="rgb(99.467468%, 34.420776%, 41.166687%)" offset="0.804688"/><stop stop-opacity="1" stop-color="rgb(99.488831%, 34.423828%, 40.933228%)" offset="0.8125"/><stop stop-opacity="1" stop-color="rgb(99.510193%, 34.42688%, 40.699768%)" offset="0.820312"/><stop stop-opacity="1" stop-color="rgb(99.531555%, 34.429932%, 40.464783%)" offset="0.828125"/><stop stop-opacity="1" stop-color="rgb(99.551392%, 34.432983%, 40.231323%)" offset="0.835937"/><stop stop-opacity="1" stop-color="rgb(99.572754%, 34.436035%, 39.997864%)" offset="0.84375"/><stop stop-opacity="1" stop-color="rgb(99.594116%, 34.439087%, 39.764404%)" offset="0.851562"/><stop stop-opacity="1" stop-color="rgb(99.615479%, 34.442139%, 39.530945%)" offset="0.859375"/><stop stop-opacity="1" stop-color="rgb(99.636841%, 34.44519%, 39.297485%)" offset="0.867188"/><stop stop-opacity="1" stop-color="rgb(99.658203%, 34.448242%, 39.064026%)" offset="0.875"/><stop stop-opacity="1" stop-color="rgb(99.679565%, 34.451294%, 38.830566%)" offset="0.882812"/><stop stop-opacity="1" stop-color="rgb(99.700928%, 34.454346%, 38.597107%)" offset="0.890625"/><stop stop-opacity="1" stop-color="rgb(99.720764%, 34.457397%, 38.363647%)" offset="0.898438"/><stop stop-opacity="1" stop-color="rgb(99.742126%, 34.460449%, 38.130188%)" offset="0.90625"/><stop stop-opacity="1" stop-color="rgb(99.763489%, 34.465027%, 37.896729%)" offset="0.914063"/><stop stop-opacity="1" stop-color="rgb(99.784851%, 34.468079%, 37.663269%)" offset="0.921875"/><stop stop-opacity="1" stop-color="rgb(99.806213%, 34.47113%, 37.42981%)" offset="0.929688"/><stop stop-opacity="1" stop-color="rgb(99.827576%, 34.474182%, 37.19635%)" offset="0.9375"/><stop stop-opacity="1" stop-color="rgb(99.848938%, 34.477234%, 36.962891%)" offset="0.945312"/><stop stop-opacity="1" stop-color="rgb(99.868774%, 34.480286%, 36.729431%)" offset="0.953125"/><stop stop-opacity="1" stop-color="rgb(99.890137%, 34.483337%, 36.495972%)" offset="0.960938"/><stop stop-opacity="1" stop-color="rgb(99.911499%, 34.486389%, 36.262512%)" offset="0.96875"/><stop stop-opacity="1" stop-color="rgb(99.932861%, 34.489441%, 36.029053%)" offset="0.976562"/><stop stop-opacity="1" stop-color="rgb(99.954224%, 34.492493%, 35.795593%)" offset="0.984375"/><stop stop-opacity="1" stop-color="rgb(99.981689%, 34.495544%, 35.488892%)" offset="1"/></linearGradient></defs><g fill="#ffffff" fill-opacity="1"><g transform="translate(81.422488, 34.924919)"><g><path d="M 2.0625 0 L 2.0625 -19.765625 L 9.25 -19.765625 C 11.394531 -19.765625 13.191406 -19.320312 14.640625 -18.4375 C 16.085938 -17.5625 17.171875 -16.375 17.890625 -14.875 C 18.617188 -13.382812 18.984375 -11.726562 18.984375 -9.90625 C 18.984375 -7.90625 18.582031 -6.160156 17.78125 -4.671875 C 16.988281 -3.191406 15.863281 -2.039062 14.40625 -1.21875 C 12.945312 -0.40625 11.226562 0 9.25 0 Z M 15.125 -9.90625 C 15.125 -11.1875 14.890625 -12.3125 14.421875 -13.28125 C 13.960938 -14.257812 13.296875 -15.023438 12.421875 -15.578125 C 11.546875 -16.128906 10.488281 -16.40625 9.25 -16.40625 L 5.90625 -16.40625 L 5.90625 -3.375 L 9.25 -3.375 C 10.507812 -3.375 11.570312 -3.65625 12.4375 -4.21875 C 13.3125 -4.78125 13.976562 -5.554688 14.4375 -6.546875 C 14.894531 -7.546875 15.125 -8.664062 15.125 -9.90625 Z M 15.125 -9.90625 "/></g></g></g><g fill="#ffffff" fill-opacity="1"><g transform="translate(99.907157, 34.924919)"><g><path d="M 8.4375 0.28125 C 7.25 0.28125 6.179688 0.0820312 5.234375 -0.3125 C 4.285156 -0.71875 3.484375 -1.269531 2.828125 -1.96875 C 2.171875 -2.675781 1.664062 -3.484375 1.3125 -4.390625 C 0.957031 -5.304688 0.78125 -6.265625 0.78125 -7.265625 C 0.78125 -8.285156 0.957031 -9.25 1.3125 -10.15625 C 1.664062 -11.070312 2.171875 -11.878906 2.828125 -12.578125 C 3.484375 -13.285156 4.285156 -13.835938 5.234375 -14.234375 C 6.179688 -14.640625 7.25 -14.84375 8.4375 -14.84375 C 9.625 -14.84375 10.6875 -14.640625 11.625 -14.234375 C 12.5625 -13.835938 13.363281 -13.285156 14.03125 -12.578125 C 14.695312 -11.878906 15.203125 -11.070312 15.546875 -10.15625 C 15.890625 -9.25 16.0625 -8.285156 16.0625 -7.265625 C 16.0625 -6.265625 15.890625 -5.304688 15.546875 -4.390625 C 15.203125 -3.484375 14.703125 -2.675781 14.046875 -1.96875 C 13.390625 -1.269531 12.585938 -0.71875 11.640625 -0.3125 C 10.691406 0.0820312 9.625 0.28125 8.4375 0.28125 Z M 4.625 -7.265625 C 4.625 -6.410156 4.789062 -5.65625 5.125 -5 C 5.457031 -4.34375 5.910156 -3.828125 6.484375 -3.453125 C 7.054688 -3.078125 7.707031 -2.890625 8.4375 -2.890625 C 9.144531 -2.890625 9.785156 -3.078125 10.359375 -3.453125 C 10.929688 -3.835938 11.390625 -4.359375 11.734375 -5.015625 C 12.078125 -5.679688 12.25 -6.441406 12.25 -7.296875 C 12.25 -8.128906 12.078125 -8.878906 11.734375 -9.546875 C 11.390625 -10.210938 10.929688 -10.734375 10.359375 -11.109375 C 9.785156 -11.484375 9.144531 -11.671875 8.4375 -11.671875 C 7.707031 -11.671875 7.054688 -11.476562 6.484375 -11.09375 C 5.910156 -10.71875 5.457031 -10.195312 5.125 -9.53125 C 4.789062 -8.875 4.625 -8.117188 4.625 -7.265625 Z M 4.625 -7.265625 "/></g></g></g><g fill="#ffffff" fill-opacity="1"><g transform="translate(115.32948, 34.924919)"><g><path d="M 24.359375 0 L 20.625 0 L 20.625 -8.1875 C 20.625 -9.332031 20.425781 -10.179688 20.03125 -10.734375 C 19.632812 -11.285156 19.082031 -11.5625 18.375 -11.5625 C 17.65625 -11.5625 16.960938 -11.273438 16.296875 -10.703125 C 15.640625 -10.140625 15.171875 -9.40625 14.890625 -8.5 L 14.890625 0 L 11.171875 0 L 11.171875 -8.1875 C 11.171875 -9.351562 10.96875 -10.207031 10.5625 -10.75 C 10.164062 -11.289062 9.613281 -11.5625 8.90625 -11.5625 C 8.1875 -11.5625 7.492188 -11.28125 6.828125 -10.71875 C 6.171875 -10.164062 5.703125 -9.429688 5.421875 -8.515625 L 5.421875 0 L 1.703125 0 L 1.703125 -14.59375 L 5.0625 -14.59375 L 5.0625 -11.890625 C 5.625 -12.835938 6.367188 -13.566406 7.296875 -14.078125 C 8.222656 -14.585938 9.289062 -14.84375 10.5 -14.84375 C 11.707031 -14.84375 12.648438 -14.546875 13.328125 -13.953125 C 14.003906 -13.359375 14.4375 -12.625 14.625 -11.75 C 15.21875 -12.75 15.972656 -13.515625 16.890625 -14.046875 C 17.804688 -14.578125 18.835938 -14.84375 19.984375 -14.84375 C 20.898438 -14.84375 21.640625 -14.675781 22.203125 -14.34375 C 22.765625 -14.019531 23.203125 -13.582031 23.515625 -13.03125 C 23.835938 -12.488281 24.054688 -11.875 24.171875 -11.1875 C 24.296875 -10.5 24.359375 -9.804688 24.359375 -9.109375 Z M 24.359375 0 "/></g></g></g><g fill="#ffffff" fill-opacity="1"><g transform="translate(139.799643, 34.924919)"><g><path d="M 1.703125 0 L 1.703125 -14.59375 L 5.421875 -14.59375 L 5.421875 0 Z M 1.703125 -16.625 L 1.703125 -20.328125 L 5.421875 -20.328125 L 5.421875 -16.625 Z M 1.703125 -16.625 "/></g></g></g><g fill="#ffffff" fill-opacity="1"><g transform="translate(145.450284, 34.924919)"><g><path d="M 15.265625 0 L 11.53125 0 L 11.53125 -8.1875 C 11.53125 -9.351562 11.320312 -10.207031 10.90625 -10.75 C 10.5 -11.289062 9.9375 -11.5625 9.21875 -11.5625 C 8.71875 -11.5625 8.210938 -11.429688 7.703125 -11.171875 C 7.191406 -10.910156 6.726562 -10.550781 6.3125 -10.09375 C 5.90625 -9.632812 5.609375 -9.109375 5.421875 -8.515625 L 5.421875 0 L 1.703125 0 L 1.703125 -14.59375 L 5.0625 -14.59375 L 5.0625 -11.890625 C 5.4375 -12.523438 5.910156 -13.054688 6.484375 -13.484375 C 7.054688 -13.921875 7.71875 -14.253906 8.46875 -14.484375 C 9.226562 -14.722656 10.023438 -14.84375 10.859375 -14.84375 C 11.765625 -14.84375 12.507812 -14.675781 13.09375 -14.34375 C 13.6875 -14.019531 14.132812 -13.582031 14.4375 -13.03125 C 14.738281 -12.488281 14.953125 -11.875 15.078125 -11.1875 C 15.203125 -10.5 15.265625 -9.804688 15.265625 -9.109375 Z M 15.265625 0 "/></g></g></g><g fill="#ffffff" fill-opacity="1"><g transform="translate(160.816927, 34.924919)"><g><path d="M 1.703125 0 L 1.703125 -14.59375 L 5.421875 -14.59375 L 5.421875 0 Z M 1.703125 -16.625 L 1.703125 -20.328125 L 5.421875 -20.328125 L 5.421875 -16.625 Z M 1.703125 -16.625 "/></g></g></g><g fill="#ffffff" fill-opacity="1"><g transform="translate(166.467568, 34.924919)"><g><path d="M 8.5 0.28125 C 7.300781 0.28125 6.226562 0.0820312 5.28125 -0.3125 C 4.34375 -0.71875 3.535156 -1.273438 2.859375 -1.984375 C 2.191406 -2.703125 1.675781 -3.515625 1.3125 -4.421875 C 0.957031 -5.335938 0.78125 -6.296875 0.78125 -7.296875 C 0.78125 -8.671875 1.085938 -9.925781 1.703125 -11.0625 C 2.328125 -12.207031 3.210938 -13.125 4.359375 -13.8125 C 5.515625 -14.5 6.882812 -14.84375 8.46875 -14.84375 C 10.039062 -14.84375 11.394531 -14.5 12.53125 -13.8125 C 13.664062 -13.125 14.507812 -12.222656 15.0625 -11.109375 L 11.421875 -10 C 11.097656 -10.53125 10.675781 -10.941406 10.15625 -11.234375 C 9.644531 -11.523438 9.070312 -11.671875 8.4375 -11.671875 C 7.726562 -11.671875 7.082031 -11.488281 6.5 -11.125 C 5.914062 -10.757812 5.457031 -10.25 5.125 -9.59375 C 4.789062 -8.9375 4.625 -8.171875 4.625 -7.296875 C 4.625 -6.441406 4.796875 -5.679688 5.140625 -5.015625 C 5.484375 -4.359375 5.941406 -3.835938 6.515625 -3.453125 C 7.085938 -3.078125 7.726562 -2.890625 8.4375 -2.890625 C 8.882812 -2.890625 9.304688 -2.960938 9.703125 -3.109375 C 10.097656 -3.265625 10.453125 -3.472656 10.765625 -3.734375 C 11.085938 -3.992188 11.320312 -4.289062 11.46875 -4.625 L 15.125 -3.515625 C 14.789062 -2.785156 14.300781 -2.132812 13.65625 -1.5625 C 13.019531 -0.988281 12.269531 -0.535156 11.40625 -0.203125 C 10.539062 0.117188 9.570312 0.28125 8.5 0.28125 Z M 8.5 0.28125 "/></g></g></g><g fill="#ffffff" fill-opacity="1"><g transform="translate(180.720624, 34.924919)"><g><path d="M 0.703125 -4.3125 C 0.703125 -5.257812 0.960938 -6.085938 1.484375 -6.796875 C 2.015625 -7.515625 2.753906 -8.066406 3.703125 -8.453125 C 4.648438 -8.847656 5.734375 -9.046875 6.953125 -9.046875 C 7.566406 -9.046875 8.1875 -9 8.8125 -8.90625 C 9.445312 -8.8125 10 -8.664062 10.46875 -8.46875 L 10.46875 -9.25 C 10.46875 -10.175781 10.191406 -10.890625 9.640625 -11.390625 C 9.097656 -11.890625 8.289062 -12.140625 7.21875 -12.140625 C 6.414062 -12.140625 5.648438 -12 4.921875 -11.71875 C 4.203125 -11.4375 3.441406 -11.03125 2.640625 -10.5 L 1.453125 -12.953125 C 2.410156 -13.578125 3.394531 -14.046875 4.40625 -14.359375 C 5.425781 -14.679688 6.488281 -14.84375 7.59375 -14.84375 C 9.675781 -14.84375 11.296875 -14.320312 12.453125 -13.28125 C 13.617188 -12.238281 14.203125 -10.753906 14.203125 -8.828125 L 14.203125 -4.171875 C 14.203125 -3.785156 14.269531 -3.507812 14.40625 -3.34375 C 14.550781 -3.175781 14.78125 -3.070312 15.09375 -3.03125 L 15.09375 0 C 14.757812 0.0507812 14.457031 0.09375 14.1875 0.125 C 13.914062 0.164062 13.6875 0.1875 13.5 0.1875 C 12.757812 0.1875 12.195312 0.0195312 11.8125 -0.3125 C 11.4375 -0.644531 11.203125 -1.050781 11.109375 -1.53125 L 11.03125 -2.28125 C 10.394531 -1.46875 9.601562 -0.835938 8.65625 -0.390625 C 7.707031 0.0546875 6.742188 0.28125 5.765625 0.28125 C 4.796875 0.28125 3.925781 0.0820312 3.15625 -0.3125 C 2.382812 -0.71875 1.78125 -1.265625 1.34375 -1.953125 C 0.914062 -2.648438 0.703125 -3.4375 0.703125 -4.3125 Z M 9.765625 -3.5625 C 9.972656 -3.78125 10.140625 -4 10.265625 -4.21875 C 10.398438 -4.445312 10.46875 -4.65625 10.46875 -4.84375 L 10.46875 -6.328125 C 10.019531 -6.503906 9.535156 -6.644531 9.015625 -6.75 C 8.492188 -6.851562 8.003906 -6.90625 7.546875 -6.90625 C 6.578125 -6.90625 5.78125 -6.695312 5.15625 -6.28125 C 4.539062 -5.863281 4.234375 -5.3125 4.234375 -4.625 C 4.234375 -4.25 4.332031 -3.894531 4.53125 -3.5625 C 4.738281 -3.226562 5.035156 -2.957031 5.421875 -2.75 C 5.816406 -2.550781 6.285156 -2.453125 6.828125 -2.453125 C 7.378906 -2.453125 7.921875 -2.554688 8.453125 -2.765625 C 8.992188 -2.984375 9.429688 -3.25 9.765625 -3.5625 Z M 9.765625 -3.5625 "/></g></g></g><g fill="#ffffff" fill-opacity="1"><g transform="translate(195.252076, 34.924919)"><g><path d="M 15.265625 0 L 11.53125 0 L 11.53125 -8.1875 C 11.53125 -9.351562 11.320312 -10.207031 10.90625 -10.75 C 10.5 -11.289062 9.9375 -11.5625 9.21875 -11.5625 C 8.71875 -11.5625 8.210938 -11.429688 7.703125 -11.171875 C 7.191406 -10.910156 6.726562 -10.550781 6.3125 -10.09375 C 5.90625 -9.632812 5.609375 -9.109375 5.421875 -8.515625 L 5.421875 0 L 1.703125 0 L 1.703125 -14.59375 L 5.0625 -14.59375 L 5.0625 -11.890625 C 5.4375 -12.523438 5.910156 -13.054688 6.484375 -13.484375 C 7.054688 -13.921875 7.71875 -14.253906 8.46875 -14.484375 C 9.226562 -14.722656 10.023438 -14.84375 10.859375 -14.84375 C 11.765625 -14.84375 12.507812 -14.675781 13.09375 -14.34375 C 13.6875 -14.019531 14.132812 -13.582031 14.4375 -13.03125 C 14.738281 -12.488281 14.953125 -11.875 15.078125 -11.1875 C 15.203125 -10.5 15.265625 -9.804688 15.265625 -9.109375 Z M 15.265625 0 "/></g></g></g><g clip-path="url(#33264cc880)"><g clip-path="url(#fd3a64f90c)"><path fill="url(#77c7f9cc74)" d="M 16.578125 11.820312 L 16.578125 78.699219 L 74.171875 78.699219 L 74.171875 11.820312 Z M 16.578125 11.820312 " fill-rule="nonzero"/></g></g><g fill="#f857a6" fill-opacity="1"><g transform="translate(81.422488, 59.664788)"><g><path d="M 10.1875 0.140625 C 8.644531 0.140625 7.332031 -0.113281 6.25 -0.625 C 5.175781 -1.144531 4.304688 -1.859375 3.640625 -2.765625 C 2.984375 -3.671875 2.5 -4.695312 2.1875 -5.84375 C 1.882812 -7 1.734375 -8.203125 1.734375 -9.453125 L 1.734375 -19.296875 L 5.484375 -19.296875 L 5.484375 -9.453125 C 5.484375 -8.660156 5.5625 -7.882812 5.71875 -7.125 C 5.875 -6.375 6.128906 -5.703125 6.484375 -5.109375 C 6.847656 -4.515625 7.328125 -4.039062 7.921875 -3.6875 C 8.523438 -3.34375 9.269531 -3.171875 10.15625 -3.171875 C 11.0625 -3.171875 11.816406 -3.347656 12.421875 -3.703125 C 13.035156 -4.054688 13.519531 -4.53125 13.875 -5.125 C 14.226562 -5.726562 14.484375 -6.40625 14.640625 -7.15625 C 14.804688 -7.90625 14.890625 -8.671875 14.890625 -9.453125 L 14.890625 -19.296875 L 18.609375 -19.296875 L 18.609375 -9.453125 C 18.609375 -8.128906 18.445312 -6.890625 18.125 -5.734375 C 17.8125 -4.578125 17.316406 -3.554688 16.640625 -2.671875 C 15.960938 -1.796875 15.085938 -1.109375 14.015625 -0.609375 C 12.953125 -0.109375 11.675781 0.140625 10.1875 0.140625 Z M 10.1875 0.140625 "/></g></g></g><g fill="#f857a6" fill-opacity="1"><g transform="translate(101.795477, 59.664788)"><g><path d="M 14.890625 0 L 11.25 0 L 11.25 -7.984375 C 11.25 -9.128906 11.046875 -9.960938 10.640625 -10.484375 C 10.242188 -11.015625 9.695312 -11.28125 9 -11.28125 C 8.507812 -11.28125 8.015625 -11.148438 7.515625 -10.890625 C 7.015625 -10.640625 6.5625 -10.289062 6.15625 -9.84375 C 5.757812 -9.40625 5.472656 -8.894531 5.296875 -8.3125 L 5.296875 0 L 1.65625 0 L 1.65625 -14.234375 L 4.9375 -14.234375 L 4.9375 -11.609375 C 5.300781 -12.222656 5.765625 -12.738281 6.328125 -13.15625 C 6.890625 -13.582031 7.535156 -13.910156 8.265625 -14.140625 C 9.003906 -14.367188 9.78125 -14.484375 10.59375 -14.484375 C 11.476562 -14.484375 12.207031 -14.320312 12.78125 -14 C 13.351562 -13.6875 13.785156 -13.257812 14.078125 -12.71875 C 14.378906 -12.1875 14.585938 -11.585938 14.703125 -10.921875 C 14.828125 -10.253906 14.890625 -9.578125 14.890625 -8.890625 Z M 14.890625 0 "/></g></g></g><g fill="#f857a6" fill-opacity="1"><g transform="translate(118.202527, 59.664788)"><g><path d="M 1.65625 0 L 1.65625 -14.234375 L 5.296875 -14.234375 L 5.296875 0 Z M 1.65625 -16.21875 L 1.65625 -19.828125 L 5.296875 -19.828125 L 5.296875 -16.21875 Z M 1.65625 -16.21875 "/></g></g></g><g fill="#f857a6" fill-opacity="1"><g transform="translate(125.129338, 59.664788)"><g><path d="M 5.484375 0 L 0.25 -14.234375 L 4.015625 -14.234375 L 7.609375 -3.3125 L 11.21875 -14.234375 L 14.671875 -14.234375 L 9.453125 0 Z M 5.484375 0 "/></g></g></g><g fill="#f857a6" fill-opacity="1"><g transform="translate(140.06953, 59.664788)"><g><path d="M 8.265625 0.265625 C 7.117188 0.265625 6.082031 0.0703125 5.15625 -0.3125 C 4.238281 -0.695312 3.453125 -1.226562 2.796875 -1.90625 C 2.148438 -2.59375 1.648438 -3.375 1.296875 -4.25 C 0.941406 -5.125 0.765625 -6.050781 0.765625 -7.03125 C 0.765625 -8.394531 1.066406 -9.632812 1.671875 -10.75 C 2.273438 -11.875 3.144531 -12.773438 4.28125 -13.453125 C 5.414062 -14.140625 6.75 -14.484375 8.28125 -14.484375 C 9.84375 -14.484375 11.175781 -14.140625 12.28125 -13.453125 C 13.382812 -12.773438 14.226562 -11.878906 14.8125 -10.765625 C 15.40625 -9.660156 15.703125 -8.460938 15.703125 -7.171875 C 15.703125 -6.953125 15.691406 -6.726562 15.671875 -6.5 C 15.660156 -6.28125 15.644531 -6.097656 15.625 -5.953125 L 4.625 -5.953125 C 4.695312 -5.222656 4.90625 -4.585938 5.25 -4.046875 C 5.601562 -3.503906 6.054688 -3.09375 6.609375 -2.8125 C 7.160156 -2.53125 7.753906 -2.390625 8.390625 -2.390625 C 9.117188 -2.390625 9.800781 -2.566406 10.4375 -2.921875 C 11.082031 -3.273438 11.523438 -3.742188 11.765625 -4.328125 L 14.890625 -3.453125 C 14.546875 -2.722656 14.050781 -2.078125 13.40625 -1.515625 C 12.757812 -0.953125 12.003906 -0.515625 11.140625 -0.203125 C 10.273438 0.109375 9.316406 0.265625 8.265625 0.265625 Z M 4.53125 -8.265625 L 11.984375 -8.265625 C 11.910156 -8.984375 11.707031 -9.609375 11.375 -10.140625 C 11.039062 -10.679688 10.597656 -11.097656 10.046875 -11.390625 C 9.503906 -11.691406 8.898438 -11.84375 8.234375 -11.84375 C 7.578125 -11.84375 6.984375 -11.691406 6.453125 -11.390625 C 5.921875 -11.097656 5.484375 -10.679688 5.140625 -10.140625 C 4.804688 -9.609375 4.601562 -8.984375 4.53125 -8.265625 Z M 4.53125 -8.265625 "/></g></g></g><g fill="#f857a6" fill-opacity="1"><g transform="translate(156.340751, 59.664788)"><g><path d="M 10.140625 -11.09375 C 9.035156 -11.09375 8.046875 -10.878906 7.171875 -10.453125 C 6.304688 -10.023438 5.679688 -9.410156 5.296875 -8.609375 L 5.296875 0 L 1.65625 0 L 1.65625 -14.234375 L 5 -14.234375 L 5 -11.1875 C 5.507812 -12.164062 6.148438 -12.9375 6.921875 -13.5 C 7.703125 -14.0625 8.53125 -14.367188 9.40625 -14.421875 C 9.601562 -14.421875 9.753906 -14.421875 9.859375 -14.421875 C 9.972656 -14.421875 10.066406 -14.414062 10.140625 -14.40625 Z M 10.140625 -11.09375 "/></g></g></g><g fill="#f857a6" fill-opacity="1"><g transform="translate(166.853213, 59.664788)"><g><path d="M 6.90625 0.265625 C 5.6875 0.265625 4.523438 0.0664062 3.421875 -0.328125 C 2.316406 -0.722656 1.367188 -1.3125 0.578125 -2.09375 L 1.875 -4.453125 C 2.726562 -3.765625 3.566406 -3.257812 4.390625 -2.9375 C 5.210938 -2.613281 6.003906 -2.453125 6.765625 -2.453125 C 7.472656 -2.453125 8.039062 -2.578125 8.46875 -2.828125 C 8.894531 -3.078125 9.109375 -3.457031 9.109375 -3.96875 C 9.109375 -4.3125 8.988281 -4.578125 8.75 -4.765625 C 8.507812 -4.953125 8.164062 -5.117188 7.71875 -5.265625 C 7.28125 -5.410156 6.742188 -5.578125 6.109375 -5.765625 C 5.054688 -6.109375 4.175781 -6.441406 3.46875 -6.765625 C 2.769531 -7.085938 2.242188 -7.5 1.890625 -8 C 1.535156 -8.5 1.359375 -9.140625 1.359375 -9.921875 C 1.359375 -10.859375 1.597656 -11.664062 2.078125 -12.34375 C 2.554688 -13.03125 3.222656 -13.5625 4.078125 -13.9375 C 4.941406 -14.320312 5.957031 -14.515625 7.125 -14.515625 C 8.132812 -14.515625 9.09375 -14.351562 10 -14.03125 C 10.90625 -13.71875 11.726562 -13.207031 12.46875 -12.5 L 11 -10.1875 C 10.28125 -10.75 9.59375 -11.160156 8.9375 -11.421875 C 8.289062 -11.679688 7.628906 -11.8125 6.953125 -11.8125 C 6.578125 -11.8125 6.21875 -11.765625 5.875 -11.671875 C 5.539062 -11.585938 5.269531 -11.441406 5.0625 -11.234375 C 4.851562 -11.023438 4.75 -10.734375 4.75 -10.359375 C 4.75 -10.015625 4.84375 -9.742188 5.03125 -9.546875 C 5.226562 -9.359375 5.519531 -9.191406 5.90625 -9.046875 C 6.300781 -8.898438 6.78125 -8.738281 7.34375 -8.5625 C 8.476562 -8.226562 9.4375 -7.890625 10.21875 -7.546875 C 11.007812 -7.203125 11.601562 -6.78125 12 -6.28125 C 12.40625 -5.789062 12.609375 -5.109375 12.609375 -4.234375 C 12.609375 -2.828125 12.09375 -1.722656 11.0625 -0.921875 C 10.03125 -0.128906 8.644531 0.265625 6.90625 0.265625 Z M 6.90625 0.265625 "/></g></g></g><g fill="#f857a6" fill-opacity="1"><g transform="translate(180.272223, 59.664788)"><g><path d="M 1.65625 0 L 1.65625 -14.234375 L 5.296875 -14.234375 L 5.296875 0 Z M 1.65625 -16.21875 L 1.65625 -19.828125 L 5.296875 -19.828125 L 5.296875 -16.21875 Z M 1.65625 -16.21875 "/></g></g></g><g fill="#f857a6" fill-opacity="1"><g transform="translate(187.199034, 59.664788)"><g><path d="M 10.1875 -0.734375 C 9.882812 -0.609375 9.515625 -0.460938 9.078125 -0.296875 C 8.640625 -0.128906 8.171875 0 7.671875 0.09375 C 7.171875 0.195312 6.671875 0.25 6.171875 0.25 C 5.492188 0.25 4.875 0.128906 4.3125 -0.109375 C 3.757812 -0.347656 3.3125 -0.722656 2.96875 -1.234375 C 2.632812 -1.753906 2.46875 -2.429688 2.46875 -3.265625 L 2.46875 -11.4375 L 0.59375 -11.4375 L 0.59375 -14.234375 L 2.46875 -14.234375 L 2.46875 -18.859375 L 6.109375 -18.859375 L 6.109375 -14.234375 L 9.109375 -14.234375 L 9.109375 -11.4375 L 6.109375 -11.4375 L 6.109375 -4.484375 C 6.128906 -3.992188 6.265625 -3.640625 6.515625 -3.421875 C 6.773438 -3.203125 7.09375 -3.09375 7.46875 -3.09375 C 7.851562 -3.09375 8.222656 -3.15625 8.578125 -3.28125 C 8.941406 -3.414062 9.234375 -3.523438 9.453125 -3.609375 Z M 10.1875 -0.734375 "/></g></g></g><g fill="#f857a6" fill-opacity="1"><g transform="translate(197.630002, 59.664788)"><g><path d="M 1.953125 2.765625 C 2.285156 2.835938 2.585938 2.898438 2.859375 2.953125 C 3.140625 3.015625 3.382812 3.046875 3.59375 3.046875 C 3.9375 3.046875 4.21875 2.957031 4.4375 2.78125 C 4.664062 2.613281 4.890625 2.304688 5.109375 1.859375 C 5.328125 1.421875 5.550781 0.800781 5.78125 0 L 0.15625 -14.234375 L 3.9375 -14.234375 L 7.765625 -3.71875 L 11.140625 -14.234375 L 14.625 -14.234375 L 8.640625 2.828125 C 8.421875 3.460938 8.085938 4.035156 7.640625 4.546875 C 7.203125 5.066406 6.648438 5.472656 5.984375 5.765625 C 5.328125 6.066406 4.59375 6.21875 3.78125 6.21875 C 3.488281 6.21875 3.195312 6.195312 2.90625 6.15625 C 2.613281 6.113281 2.296875 6.035156 1.953125 5.921875 Z M 1.953125 2.765625 "/></g></g></g><g fill="#ffffff" fill-opacity="1"><g transform="translate(69.541294, 74.827143)"><g><path d="M 2.453125 -6.109375 L 3.359375 -6.109375 L 5.75 0 L 4.71875 0 L 4.078125 -1.65625 L 1.71875 -1.65625 L 1.078125 0 L 0.0625 0 Z M 3.890625 -2.375 L 2.90625 -5.046875 L 1.890625 -2.375 Z M 3.890625 -2.375 "/></g></g></g><g fill="#ffffff" fill-opacity="1"><g transform="translate(77.38837, 74.827143)"><g><path d="M 0.6875 0 L 0.6875 -6.109375 L 3.34375 -6.109375 C 3.625 -6.109375 3.878906 -6.050781 4.109375 -5.9375 C 4.335938 -5.820312 4.535156 -5.671875 4.703125 -5.484375 C 4.867188 -5.296875 5 -5.082031 5.09375 -4.84375 C 5.195312 -4.613281 5.25 -4.375 5.25 -4.125 C 5.25 -3.851562 5.195312 -3.59375 5.09375 -3.34375 C 5 -3.101562 4.859375 -2.890625 4.671875 -2.703125 C 4.492188 -2.523438 4.285156 -2.398438 4.046875 -2.328125 L 5.484375 0 L 4.40625 0 L 3.078125 -2.125 L 1.65625 -2.125 L 1.65625 0 Z M 1.65625 -2.984375 L 3.34375 -2.984375 C 3.519531 -2.984375 3.675781 -3.03125 3.8125 -3.125 C 3.945312 -3.226562 4.054688 -3.367188 4.140625 -3.546875 C 4.222656 -3.722656 4.265625 -3.914062 4.265625 -4.125 C 4.265625 -4.332031 4.21875 -4.519531 4.125 -4.6875 C 4.03125 -4.863281 3.910156 -5.003906 3.765625 -5.109375 C 3.617188 -5.210938 3.457031 -5.265625 3.28125 -5.265625 L 1.65625 -5.265625 Z M 1.65625 -2.984375 "/></g></g></g><g fill="#ffffff" fill-opacity="1"><g transform="translate(85.114988, 74.827143)"><g><path d="M 5.171875 -5.265625 L 3.140625 -5.265625 L 3.140625 0 L 2.171875 0 L 2.171875 -5.265625 L 0.125 -5.265625 L 0.125 -6.109375 L 5.171875 -6.109375 Z M 5.171875 -5.265625 "/></g></g></g><g fill="#ffffff" fill-opacity="1"><g transform="translate(92.454421, 74.827143)"><g><path d="M 0.6875 0 L 0.6875 -6.109375 L 1.65625 -6.109375 L 1.65625 0 Z M 0.6875 0 "/></g></g></g><g fill="#ffffff" fill-opacity="1"><g transform="translate(96.83398, 74.827143)"><g><path d="M 0.6875 0 L 0.6875 -6.109375 L 4.765625 -6.109375 L 4.765625 -5.265625 L 1.65625 -5.265625 L 1.65625 -3.4375 L 4.25 -3.4375 L 4.25 -2.640625 L 1.65625 -2.640625 L 1.65625 0 Z M 0.6875 0 "/></g></g></g><g fill="#ffffff" fill-opacity="1"><g transform="translate(103.855047, 74.827143)"><g><path d="M 0.6875 0 L 0.6875 -6.109375 L 1.65625 -6.109375 L 1.65625 0 Z M 0.6875 0 "/></g></g></g><g fill="#ffffff" fill-opacity="1"><g transform="translate(108.234608, 74.827143)"><g><path d="M 0.296875 -3.09375 C 0.296875 -3.46875 0.363281 -3.832031 0.5 -4.1875 C 0.632812 -4.550781 0.828125 -4.878906 1.078125 -5.171875 C 1.335938 -5.472656 1.648438 -5.707031 2.015625 -5.875 C 2.378906 -6.050781 2.796875 -6.140625 3.265625 -6.140625 C 3.816406 -6.140625 4.289062 -6.015625 4.6875 -5.765625 C 5.09375 -5.515625 5.394531 -5.195312 5.59375 -4.8125 L 4.828125 -4.296875 C 4.710938 -4.546875 4.566406 -4.742188 4.390625 -4.890625 C 4.210938 -5.035156 4.019531 -5.132812 3.8125 -5.1875 C 3.613281 -5.25 3.421875 -5.28125 3.234375 -5.28125 C 2.910156 -5.28125 2.625 -5.210938 2.375 -5.078125 C 2.132812 -4.953125 1.929688 -4.78125 1.765625 -4.5625 C 1.609375 -4.351562 1.488281 -4.113281 1.40625 -3.84375 C 1.320312 -3.582031 1.28125 -3.320312 1.28125 -3.0625 C 1.28125 -2.769531 1.328125 -2.488281 1.421875 -2.21875 C 1.523438 -1.945312 1.660156 -1.703125 1.828125 -1.484375 C 2.003906 -1.273438 2.210938 -1.109375 2.453125 -0.984375 C 2.703125 -0.867188 2.96875 -0.8125 3.25 -0.8125 C 3.445312 -0.8125 3.648438 -0.847656 3.859375 -0.921875 C 4.078125 -0.992188 4.273438 -1.101562 4.453125 -1.25 C 4.628906 -1.394531 4.769531 -1.585938 4.875 -1.828125 L 5.6875 -1.375 C 5.5625 -1.0625 5.363281 -0.800781 5.09375 -0.59375 C 4.820312 -0.382812 4.519531 -0.222656 4.1875 -0.109375 C 3.863281 -0.00390625 3.539062 0.046875 3.21875 0.046875 C 2.789062 0.046875 2.394531 -0.0390625 2.03125 -0.21875 C 1.675781 -0.394531 1.367188 -0.632812 1.109375 -0.9375 C 0.859375 -1.238281 0.660156 -1.578125 0.515625 -1.953125 C 0.367188 -2.328125 0.296875 -2.707031 0.296875 -3.09375 Z M 0.296875 -3.09375 "/></g></g></g><g fill="#ffffff" fill-opacity="1"><g transform="translate(116.159124, 74.827143)"><g><path d="M 0.6875 0 L 0.6875 -6.109375 L 1.65625 -6.109375 L 1.65625 0 Z M 0.6875 0 "/></g></g></g><g fill="#ffffff" fill-opacity="1"><g transform="translate(120.538684, 74.827143)"><g><path d="M 2.453125 -6.109375 L 3.359375 -6.109375 L 5.75 0 L 4.71875 0 L 4.078125 -1.65625 L 1.71875 -1.65625 L 1.078125 0 L 0.0625 0 Z M 3.890625 -2.375 L 2.90625 -5.046875 L 1.890625 -2.375 Z M 3.890625 -2.375 "/></g></g></g><g fill="#ffffff" fill-opacity="1"><g transform="translate(128.385762, 74.827143)"><g><path d="M 0.6875 0 L 0.6875 -6.109375 L 1.65625 -6.109375 L 1.65625 -0.859375 L 4.9375 -0.859375 L 4.9375 0 Z M 0.6875 0 "/></g></g></g><g fill="#ffffff" fill-opacity="1"><g transform="translate(135.44986, 74.827143)"><g/></g></g><g fill="#ffffff" fill-opacity="1"><g transform="translate(139.614313, 74.827143)"><g><path d="M 0.6875 0 L 0.6875 -6.109375 L 1.65625 -6.109375 L 1.65625 0 Z M 0.6875 0 "/></g></g></g><g fill="#ffffff" fill-opacity="1"><g transform="translate(143.993873, 74.827143)"><g><path d="M 1.65625 -4.328125 L 1.65625 0 L 0.6875 0 L 0.6875 -6.109375 L 1.484375 -6.109375 L 4.9375 -1.703125 L 4.9375 -6.109375 L 5.921875 -6.109375 L 5.921875 0 L 5.078125 0 Z M 1.65625 -4.328125 "/></g></g></g><g fill="#ffffff" fill-opacity="1"><g transform="translate(152.632551, 74.827143)"><g><path d="M 5.171875 -5.265625 L 3.140625 -5.265625 L 3.140625 0 L 2.171875 0 L 2.171875 -5.265625 L 0.125 -5.265625 L 0.125 -6.109375 L 5.171875 -6.109375 Z M 5.171875 -5.265625 "/></g></g></g><g fill="#ffffff" fill-opacity="1"><g transform="translate(159.971986, 74.827143)"><g><path d="M 4.875 -0.859375 L 4.875 0 L 0.6875 0 L 0.6875 -6.109375 L 4.796875 -6.109375 L 4.796875 -5.265625 L 1.65625 -5.265625 L 1.65625 -3.515625 L 4.375 -3.515625 L 4.375 -2.71875 L 1.65625 -2.71875 L 1.65625 -0.859375 Z M 4.875 -0.859375 "/></g></g></g><g fill="#ffffff" fill-opacity="1"><g transform="translate(167.199562, 74.827143)"><g><path d="M 0.6875 0 L 0.6875 -6.109375 L 1.65625 -6.109375 L 1.65625 -0.859375 L 4.9375 -0.859375 L 4.9375 0 Z M 0.6875 0 "/></g></g></g><g fill="#ffffff" fill-opacity="1"><g transform="translate(174.263654, 74.827143)"><g><path d="M 0.6875 0 L 0.6875 -6.109375 L 1.65625 -6.109375 L 1.65625 -0.859375 L 4.9375 -0.859375 L 4.9375 0 Z M 0.6875 0 "/></g></g></g><g fill="#ffffff" fill-opacity="1"><g transform="translate(181.327746, 74.827143)"><g><path d="M 0.6875 0 L 0.6875 -6.109375 L 1.65625 -6.109375 L 1.65625 0 Z M 0.6875 0 "/></g></g></g><g fill="#ffffff" fill-opacity="1"><g transform="translate(185.707301, 74.827143)"><g><path d="M 3.1875 0.046875 C 2.78125 0.046875 2.398438 -0.0351562 2.046875 -0.203125 C 1.703125 -0.367188 1.398438 -0.597656 1.140625 -0.890625 C 0.878906 -1.179688 0.675781 -1.515625 0.53125 -1.890625 C 0.382812 -2.265625 0.3125 -2.660156 0.3125 -3.078125 C 0.3125 -3.492188 0.382812 -3.882812 0.53125 -4.25 C 0.675781 -4.625 0.878906 -4.953125 1.140625 -5.234375 C 1.398438 -5.523438 1.707031 -5.75 2.0625 -5.90625 C 2.414062 -6.070312 2.800781 -6.15625 3.21875 -6.15625 C 3.800781 -6.15625 4.289062 -6.03125 4.6875 -5.78125 C 5.082031 -5.539062 5.382812 -5.222656 5.59375 -4.828125 L 4.84375 -4.28125 C 4.6875 -4.613281 4.457031 -4.863281 4.15625 -5.03125 C 3.863281 -5.195312 3.539062 -5.28125 3.1875 -5.28125 C 2.90625 -5.28125 2.644531 -5.21875 2.40625 -5.09375 C 2.175781 -4.976562 1.972656 -4.816406 1.796875 -4.609375 C 1.628906 -4.398438 1.503906 -4.160156 1.421875 -3.890625 C 1.335938 -3.628906 1.296875 -3.351562 1.296875 -3.0625 C 1.296875 -2.75 1.34375 -2.457031 1.4375 -2.1875 C 1.53125 -1.914062 1.664062 -1.675781 1.84375 -1.46875 C 2.03125 -1.269531 2.242188 -1.113281 2.484375 -1 C 2.722656 -0.882812 2.984375 -0.828125 3.265625 -0.828125 C 3.597656 -0.828125 3.914062 -0.910156 4.21875 -1.078125 C 4.519531 -1.242188 4.800781 -1.5 5.0625 -1.84375 L 5.0625 -0.859375 C 4.53125 -0.253906 3.90625 0.046875 3.1875 0.046875 Z M 4.96875 -2.375 L 3.6875 -2.375 L 3.6875 -3.09375 L 5.78125 -3.09375 L 5.78125 0 L 4.96875 0 Z M 4.96875 -2.375 "/></g></g></g><g fill="#ffffff" fill-opacity="1"><g transform="translate(193.932969, 74.827143)"><g><path d="M 4.875 -0.859375 L 4.875 0 L 0.6875 0 L 0.6875 -6.109375 L 4.796875 -6.109375 L 4.796875 -5.265625 L 1.65625 -5.265625 L 1.65625 -3.515625 L 4.375 -3.515625 L 4.375 -2.71875 L 1.65625 -2.71875 L 1.65625 -0.859375 Z M 4.875 -0.859375 "/></g></g></g><g fill="#ffffff" fill-opacity="1"><g transform="translate(201.160539, 74.827143)"><g><path d="M 1.65625 -4.328125 L 1.65625 0 L 0.6875 0 L 0.6875 -6.109375 L 1.484375 -6.109375 L 4.9375 -1.703125 L 4.9375 -6.109375 L 5.921875 -6.109375 L 5.921875 0 L 5.078125 0 Z M 1.65625 -4.328125 "/></g></g></g><g fill="#ffffff" fill-opacity="1"><g transform="translate(209.799213, 74.827143)"><g><path d="M 0.296875 -3.09375 C 0.296875 -3.46875 0.363281 -3.832031 0.5 -4.1875 C 0.632812 -4.550781 0.828125 -4.878906 1.078125 -5.171875 C 1.335938 -5.472656 1.648438 -5.707031 2.015625 -5.875 C 2.378906 -6.050781 2.796875 -6.140625 3.265625 -6.140625 C 3.816406 -6.140625 4.289062 -6.015625 4.6875 -5.765625 C 5.09375 -5.515625 5.394531 -5.195312 5.59375 -4.8125 L 4.828125 -4.296875 C 4.710938 -4.546875 4.566406 -4.742188 4.390625 -4.890625 C 4.210938 -5.035156 4.019531 -5.132812 3.8125 -5.1875 C 3.613281 -5.25 3.421875 -5.28125 3.234375 -5.28125 C 2.910156 -5.28125 2.625 -5.210938 2.375 -5.078125 C 2.132812 -4.953125 1.929688 -4.78125 1.765625 -4.5625 C 1.609375 -4.351562 1.488281 -4.113281 1.40625 -3.84375 C 1.320312 -3.582031 1.28125 -3.320312 1.28125 -3.0625 C 1.28125 -2.769531 1.328125 -2.488281 1.421875 -2.21875 C 1.523438 -1.945312 1.660156 -1.703125 1.828125 -1.484375 C 2.003906 -1.273438 2.210938 -1.109375 2.453125 -0.984375 C 2.703125 -0.867188 2.96875 -0.8125 3.25 -0.8125 C 3.445312 -0.8125 3.648438 -0.847656 3.859375 -0.921875 C 4.078125 -0.992188 4.273438 -1.101562 4.453125 -1.25 C 4.628906 -1.394531 4.769531 -1.585938 4.875 -1.828125 L 5.6875 -1.375 C 5.5625 -1.0625 5.363281 -0.800781 5.09375 -0.59375 C 4.820312 -0.382812 4.519531 -0.222656 4.1875 -0.109375 C 3.863281 -0.00390625 3.539062 0.046875 3.21875 0.046875 C 2.789062 0.046875 2.394531 -0.0390625 2.03125 -0.21875 C 1.675781 -0.394531 1.367188 -0.632812 1.109375 -0.9375 C 0.859375 -1.238281 0.660156 -1.578125 0.515625 -1.953125 C 0.367188 -2.328125 0.296875 -2.707031 0.296875 -3.09375 Z M 0.296875 -3.09375 "/></g></g></g><g fill="#ffffff" fill-opacity="1"><g transform="translate(217.723724, 74.827143)"><g><path d="M 4.875 -0.859375 L 4.875 0 L 0.6875 0 L 0.6875 -6.109375 L 4.796875 -6.109375 L 4.796875 -5.265625 L 1.65625 -5.265625 L 1.65625 -3.515625 L 4.375 -3.515625 L 4.375 -2.71875 L 1.65625 -2.71875 L 1.65625 -0.859375 Z M 4.875 -0.859375 "/></g></g></g><g fill="#ffffff" fill-opacity="1"><g transform="translate(224.954828, 74.827143)"><g/></g></g></svg>